<svg width="1200" height="760" viewBox="0 0 1200 760" fill="none" xmlns="http://www.w3.org/2000/svg">
  <defs>
    <linearGradient id="bg" x1="0" y1="0" x2="1200" y2="760" gradientUnits="userSpaceOnUse">
      <stop stop-color="#FBFDFF"/>
      <stop offset="0.58" stop-color="#F6FAFD"/>
      <stop offset="1" stop-color="#EFF7FB"/>
    </linearGradient>
    <linearGradient id="waveA" x1="775" y1="500" x2="1120" y2="680" gradientUnits="userSpaceOnUse">
      <stop stop-color="#9DDCFA"/>
      <stop offset="1" stop-color="#0B86C4"/>
    </linearGradient>
    <linearGradient id="waveB" x1="890" y1="540" x2="1200" y2="760" gradientUnits="userSpaceOnUse">
      <stop stop-color="#0B86C4"/>
      <stop offset="1" stop-color="#0E3154"/>
    </linearGradient>
  </defs>

  <rect width="1200" height="760" rx="28" fill="url(#bg)"/>
  <path d="M760 575C875 520 1005 526 1200 405V760H620C676 690 710 621 760 575Z" fill="url(#waveA)" opacity="0.88"/>
  <path d="M840 620C960 575 1080 590 1200 510V760H760C784 706 805 651 840 620Z" fill="#D8EEF9"/>
  <path d="M1005 676C1075 648 1135 624 1200 584V760H930C957 720 980 693 1005 676Z" fill="url(#waveB)"/>

  <g opacity="0.09">
    <circle cx="1025" cy="104" r="170" fill="#0B86C4"/>
    <circle cx="1025" cy="104" r="105" fill="#FFFFFF"/>
  </g>

  <text x="78" y="118" fill="#121C28" font-family="Inter,Arial,sans-serif" font-size="25" font-weight="800" letter-spacing="2.6">THYNK UNLIMITED</text>
  <text x="78" y="160" fill="#607080" font-family="Inter,Arial,sans-serif" font-size="17" font-weight="500" letter-spacing="0.6">VISUAL BUSINESS CARD TEMPLATE</text>

  <g transform="translate(900 96)">
    <path d="M37 0L73 21V63L37 84L0 63V21L37 0Z" fill="#0C7FB7"/>
    <path d="M26 24L36 30V55L26 49V24Z" fill="#FFFFFF"/>
    <path d="M47 24L57 30V55L47 61V24Z" fill="#FFFFFF"/>
    <path d="M36 30L47 24V61L36 55V30Z" fill="#0F4269"/>
  </g>

  <line x1="78" y1="218" x2="340" y2="218" stroke="#0B86C4" stroke-width="5" stroke-linecap="round"/>
  <text x="78" y="286" fill="#182330" font-family="Inter,Arial,sans-serif" font-size="31" font-weight="700">PROFESSIONAL</text>
  <text x="78" y="328" fill="#182330" font-family="Inter,Arial,sans-serif" font-size="31" font-weight="700">CREATIVE PROFILE</text>

  <g opacity="0.75">
    <circle cx="92" cy="438" r="16" stroke="#0B86C4" stroke-width="4"/>
    <path d="M89 430L100 438L89 446V430Z" fill="#0B86C4"/>
    <line x1="126" y1="430" x2="460" y2="430" stroke="#B7C8D4" stroke-width="2"/>
    <line x1="126" y1="469" x2="400" y2="469" stroke="#D2DCE3" stroke-width="2"/>
  </g>

  <g>
    <circle cx="92" cy="535" r="16" stroke="#0B86C4" stroke-width="4"/>
    <path d="M86 531H99V540H86V531Z" fill="#0B86C4"/>
    <line x1="126" y1="527" x2="450" y2="527" stroke="#B7C8D4" stroke-width="2"/>
    <line x1="126" y1="566" x2="420" y2="566" stroke="#D2DCE3" stroke-width="2"/>
  </g>

  <g>
    <circle cx="92" cy="632" r="16" stroke="#0B86C4" stroke-width="4"/>
    <path d="M92 622C87 622 84 626 84 631C84 638 92 646 92 646C92 646 100 638 100 631C100 626 97 622 92 622Z" fill="#0B86C4"/>
    <line x1="126" y1="624" x2="475" y2="624" stroke="#B7C8D4" stroke-width="2"/>
    <line x1="126" y1="663" x2="450" y2="663" stroke="#D2DCE3" stroke-width="2"/>
  </g>

  <text x="78" y="706" fill="#8A99A7" font-family="Inter,Arial,sans-serif" font-size="14" font-weight="600" letter-spacing="0.8">EDITABLE TEMPLATE • PRINT-READY • REUSABLE</text>
</svg>